<?xml version="1.0" encoding="UTF-8" standalone="no"?>
<!-- Created with Inkscape (http://www.inkscape.org/) -->

<svg
   xmlns:dc="http://purl.org/dc/elements/1.1/"
   xmlns:cc="http://creativecommons.org/ns#"
   xmlns:rdf="http://www.w3.org/1999/02/22-rdf-syntax-ns#"
   xmlns:svg="http://www.w3.org/2000/svg"
   xmlns="http://www.w3.org/2000/svg"
   xmlns:sodipodi="http://sodipodi.sourceforge.net/DTD/sodipodi-0.dtd"
   xmlns:inkscape="http://www.inkscape.org/namespaces/inkscape"
   id="svg3011"
   version="1.1"
   inkscape:version="0.48.0 r9654"
   width="72"
   height="72"
   sodipodi:docname="Brawler.png">
  <metadata
     id="metadata3017">
    <rdf:RDF>
      <cc:Work
         rdf:about="">
        <dc:format>image/svg+xml</dc:format>
        <dc:type
           rdf:resource="http://purl.org/dc/dcmitype/StillImage" />
        <dc:title></dc:title>
      </cc:Work>
    </rdf:RDF>
  </metadata>
  <defs
     id="defs3015" />
  <sodipodi:namedview
     pagecolor="#ffffff"
     bordercolor="#666666"
     borderopacity="1"
     objecttolerance="10"
     gridtolerance="10"
     guidetolerance="10"
     inkscape:pageopacity="0"
     inkscape:pageshadow="2"
     inkscape:window-width="1366"
     inkscape:window-height="706"
     id="namedview3013"
     showgrid="false"
     inkscape:zoom="11.43156"
     inkscape:cx="33.032323"
     inkscape:cy="31.802751"
     inkscape:window-x="-8"
     inkscape:window-y="-8"
     inkscape:window-maximized="1"
     inkscape:current-layer="layer2" />
  <g
     inkscape:groupmode="layer"
     id="layer2"
     inkscape:label="Taso">
    <path
       style="fill:none;stroke:#000000;stroke-width:1px;stroke-linecap:butt;stroke-linejoin:miter;stroke-opacity:1"
       d="m 43.388655,26.074508 c -1.574588,-3.761516 -5.948444,-3.586562 -7.960418,-1.399634 -2.011974,2.186928 -1.137203,5.511059 2.186928,7.435556 3.324131,1.924497 7.435556,3.936471 7.435556,3.936471 0,0 1.312157,0.262431 2.099451,-1.049726 0.787294,-1.312157 0.699817,-2.274405 0.262431,-2.624314 -0.437386,-0.349908 -3.586563,-3.93647 -4.023948,-6.298353 z"
       id="path3022"
       inkscape:connector-curvature="0"
       sodipodi:nodetypes="csscssc" />
    <path
       style="fill:none;stroke:#000000;stroke-width:1px;stroke-linecap:butt;stroke-linejoin:miter;stroke-opacity:1"
       d="m 36.915348,31.935476 c -4.723765,2.71179 -3.149177,8.922667 -0.437386,11.022118 2.711791,2.099451 5.598536,2.886745 9.622484,1.487111"
       id="path3024"
       inkscape:connector-curvature="0" />
    <path
       style="fill:none;stroke:#000000;stroke-width:1px;stroke-linecap:butt;stroke-linejoin:miter;stroke-opacity:1"
       d="m 39.88957,36.571763 c 1.487111,1.487111 0.699817,5.161151 0.699817,5.161151"
       id="path3026"
       inkscape:connector-curvature="0" />
    <path
       style="fill:none;stroke:#000000;stroke-width:1px;stroke-linecap:butt;stroke-linejoin:miter;stroke-opacity:1"
       d="m 41.026773,40.595711 c 3.499085,-1.399634 5.073673,0.349909 5.073673,0.349909 1.312157,-3.149177 3.499085,-1.574589 4.636288,-0.874772 1.137203,0.699817 0.349909,3.236654 -1.312157,3.761517 -1.662065,0.524863 -1.924497,1.399634 -3.499085,0.349908"
       id="path3028"
       inkscape:connector-curvature="0" />
    <path
       style="fill:none;stroke:#000000;stroke-width:1px;stroke-linecap:butt;stroke-linejoin:miter;stroke-opacity:1"
       d="m 45.050721,28.786299 c 2.361882,-1.22468 4.898719,4.198902 4.898719,4.198902"
       id="path3030"
       inkscape:connector-curvature="0" />
    <path
       style="fill:none;stroke:#000000;stroke-width:1px;stroke-linecap:butt;stroke-linejoin:miter;stroke-opacity:1"
       d="m 49.162146,33.597541 c 1.399634,-1.749543 3.149176,-1.22468 3.586562,-1.049726"
       id="path3032"
       inkscape:connector-curvature="0" />
    <path
       style="fill:none;stroke:#000000;stroke-width:1px;stroke-linecap:butt;stroke-linejoin:miter;stroke-opacity:1"
       d="m 47.237649,35.347083 c 0.699817,1.924497 0.699817,3.149177 0.61234,3.848994"
       id="path3034"
       inkscape:connector-curvature="0"
       sodipodi:nodetypes="cc" />
    <path
       style="fill:none;stroke:#000000;stroke-width:1px;stroke-linecap:butt;stroke-linejoin:miter;stroke-opacity:1"
       d="m 48.024943,37.27158 c 2.361883,0.349909 5.948445,-2.099451 5.948445,-2.099451"
       id="path3036"
       inkscape:connector-curvature="0" />
    <path
       style="fill:none;stroke:#000000;stroke-width:1px;stroke-linecap:butt;stroke-linejoin:miter;stroke-opacity:1"
       d="m 52.573753,32.722769 c 0.874771,-2.536836 3.0617,-2.624313 3.936471,-1.137202 0.874772,1.487111 0.699817,4.636288 -3.149176,3.761517"
       id="path3038"
       inkscape:connector-curvature="0"
       sodipodi:nodetypes="csc" />
    <path
       style="fill:none;stroke:#000000;stroke-width:1px;stroke-linecap:butt;stroke-linejoin:miter;stroke-opacity:1"
       d="m 47.937466,44.794613 c -0.174954,8.747713 -3.411608,12.246798 -10.322301,12.334275 -6.910693,0.08748 -11.546981,-2.886745 -10.934641,-5.948444 0.61234,-3.0617 2.886745,-4.548811 2.886745,-4.548811"
       id="path3040"
       inkscape:connector-curvature="0"
       sodipodi:nodetypes="cssc" />
    <path
       style="fill:none;stroke:#000000;stroke-width:1px;stroke-linecap:butt;stroke-linejoin:miter;stroke-opacity:1"
       d="M 27.730249,48.381176 C 27.292864,44.269751 15.133543,40.33328 15.133543,40.33328 c 0,0 10.67221,-0.699817 15.83336,1.662065 5.161151,2.361883 5.073674,4.373857 5.073674,4.373857"
       id="path3042"
       inkscape:connector-curvature="0"
       sodipodi:nodetypes="ccsc" />
    <path
       style="fill:none;stroke:#000000;stroke-width:1px;stroke-linecap:butt;stroke-linejoin:miter;stroke-opacity:1"
       d="m 37.002825,43.482456 c -0.61234,3.236654 -0.437385,4.986196 -4.023948,6.648262"
       id="path3044"
       inkscape:connector-curvature="0"
       sodipodi:nodetypes="cc" />
  </g>
</svg>
