<?xml version="1.0" encoding="UTF-8" standalone="no"?>
<!-- Created with Inkscape (http://www.inkscape.org/) -->

<svg
   xmlns:dc="http://purl.org/dc/elements/1.1/"
   xmlns:cc="http://creativecommons.org/ns#"
   xmlns:rdf="http://www.w3.org/1999/02/22-rdf-syntax-ns#"
   xmlns:svg="http://www.w3.org/2000/svg"
   xmlns="http://www.w3.org/2000/svg"
   xmlns:sodipodi="http://sodipodi.sourceforge.net/DTD/sodipodi-0.dtd"
   xmlns:inkscape="http://www.inkscape.org/namespaces/inkscape"
   id="svg3105"
   version="1.1"
   inkscape:version="0.48.0 r9654"
   width="72"
   height="72"
   sodipodi:docname="Cheaf.svg">
  <metadata
     id="metadata3111">
    <rdf:RDF>
      <cc:Work
         rdf:about="">
        <dc:format>image/svg+xml</dc:format>
        <dc:type
           rdf:resource="http://purl.org/dc/dcmitype/StillImage" />
        <dc:title />
      </cc:Work>
    </rdf:RDF>
  </metadata>
  <defs
     id="defs3109" />
  <sodipodi:namedview
     pagecolor="#ffffff"
     bordercolor="#666666"
     borderopacity="1"
     objecttolerance="10"
     gridtolerance="10"
     guidetolerance="10"
     inkscape:pageopacity="0"
     inkscape:pageshadow="2"
     inkscape:window-width="1366"
     inkscape:window-height="706"
     id="namedview3107"
     showgrid="false"
     inkscape:zoom="12.260054"
     inkscape:cx="36.379702"
     inkscape:cy="40.680013"
     inkscape:window-x="-8"
     inkscape:window-y="-8"
     inkscape:window-maximized="1"
     inkscape:current-layer="layer1" />
  <g
     inkscape:groupmode="layer"
     id="layer1"
     inkscape:label="Taso">
    <path
       style="fill:none;stroke:#000000;stroke-width:1px;stroke-linecap:butt;stroke-linejoin:miter;stroke-opacity:1"
       d="m 43.422929,27.935173 c 2.13257,2.094563 5.058714,4.778484 4.706799,5.567001 -0.565514,1.26712 -0.495847,3.082867 -2.729099,3.332021 C 41.989021,36.571763 35.34076,32.022953 35.34076,32.022953 l -0.699817,-2.011974"
       id="path3884"
       inkscape:connector-curvature="0"
       sodipodi:nodetypes="csccc" />
    <path
       style="fill:none;stroke:#000000;stroke-width:1px;stroke-linecap:butt;stroke-linejoin:miter;stroke-opacity:1"
       d="m 36.652916,26.774325 c -0.349908,-0.262431 -9.622484,-8.747713 -9.622484,-8.747713 0,0 4.28638,4.723765 3.324131,6.560785 -0.962248,1.83702 -3.324131,4.286379 -3.324131,4.286379 l 9.709962,1.137203"
       id="path3886"
       inkscape:connector-curvature="0" />
    <path
       style="fill:none;stroke:#000000;stroke-width:1px;stroke-linecap:butt;stroke-linejoin:miter;stroke-opacity:1"
       d="m 39.802093,24.762351 c 0.874771,-8.22285 -1.83702,-11.284549 -1.83702,-11.284549 0,0 0.349909,3.93647 -0.612339,5.336104 -0.962249,1.399634 -1.662066,1.924497 -1.662066,1.924497 l -2.886745,-2.536836 c 0,0 1.22468,2.886745 0.437386,5.248627"
       id="path3888"
       inkscape:connector-curvature="0" />
    <path
       style="fill:none;stroke:#000000;stroke-width:1px;stroke-linecap:butt;stroke-linejoin:miter;stroke-opacity:1"
       d="M 43.67945,28.098305 C 43.155781,23.625148 40.152002,23.88758 40.152002,23.88758"
       id="path3890"
       inkscape:connector-curvature="0"
       sodipodi:nodetypes="cc" />
    <path
       style="fill:none;stroke:#000000;stroke-width:1px;stroke-linecap:butt;stroke-linejoin:miter;stroke-opacity:1"
       d="m 43.213701,26.867713 2.011974,-2.630225 c 0,0 -0.61234,-1.137202 -0.174954,-3.761516 0.437385,-2.624314 0.437385,-2.711791 0.437385,-2.711791 l -4.373856,6.210876"
       id="path3892"
       inkscape:connector-curvature="0"
       sodipodi:nodetypes="ccscc" />
    <path
       style="fill:none;stroke:#000000;stroke-width:1px;stroke-linecap:butt;stroke-linejoin:miter;stroke-opacity:1"
       d="m 28.153902,36.478533 c -4.31402,3.407674 -4.162117,5.328266 -4.010215,6.391583 0.174954,1.22468 2.886745,5.598537 2.886745,5.598537"
       id="path3894"
       inkscape:connector-curvature="0"
       sodipodi:nodetypes="csc" />
    <path
       style="fill:none;stroke:#000000;stroke-width:1px;stroke-linecap:butt;stroke-linejoin:miter;stroke-opacity:1"
       d="m 34.990851,37.971397 c -1.137203,3.411608 -5.336105,5.073674 -5.336105,5.073674"
       id="path3896"
       inkscape:connector-curvature="0" />
    <path
       style="fill:none;stroke:#000000;stroke-width:1px;stroke-linecap:butt;stroke-linejoin:miter;stroke-opacity:1"
       d="m 28.954929,42.257777 c 2.799268,1.749542 3.0617,5.336104 3.0617,5.336104 -7.435556,-0.437385 -6.210876,3.761517 -4.373857,5.336105 1.83702,1.574588 9.447531,-3.411609 4.373857,-5.336105"
       id="path3898"
       inkscape:connector-curvature="0" />
    <path
       style="fill:none;stroke:#000000;stroke-width:1px;stroke-linecap:butt;stroke-linejoin:miter;stroke-opacity:1"
       d="m 34.553465,51.967738 c -2.186928,1.837019 -2.886745,2.974222 0.787295,4.461333 3.674039,1.487111 13.646431,5.073674 17.232994,1.22468 3.586562,-3.848994 4.111425,-4.548811 4.111425,-4.548811 0,0 -6.298353,4.723765 -22.131714,-1.137202 z"
       id="path3900"
       inkscape:connector-curvature="0" />
    <path
       style="fill:none;stroke:#000000;stroke-width:1px;stroke-linecap:butt;stroke-linejoin:miter;stroke-opacity:1"
       d="M 36.215531,52.055215 C 37.615165,48.468653 33.50374,50.043241 33.50374,50.043241"
       id="path3902"
       inkscape:connector-curvature="0" />
    <path
       style="fill:none;stroke:#000000;stroke-width:1px;stroke-linecap:butt;stroke-linejoin:miter;stroke-opacity:1"
       d="m 30.179609,53.192418 c -0.349908,0.349908 -1.22468,4.461333 2.799268,2.099451"
       id="path3904"
       inkscape:connector-curvature="0" />
    <path
       style="fill:none;stroke:#000000;stroke-width:1px;stroke-linecap:butt;stroke-linejoin:miter;stroke-opacity:1"
       d="m 33.853648,32.72277 c -6.473307,-2.011974 -10.497255,2.361882 -10.497255,2.361882 0,0 8.047896,2.624314 10.147347,1.924497 2.099451,-0.699817 4.548811,-3.236654 0.349908,-4.286379 z"
       id="path3906"
       inkscape:connector-curvature="0" />
    <path
       style="fill:none;stroke:#000000;stroke-width:1px;stroke-linecap:butt;stroke-linejoin:miter;stroke-opacity:1"
       d="m 56.525039,42.310081 c 2.446971,1.223485 3.42576,3.017931 5.13864,-8.809097 1.71288,-11.827029 -5.546469,-14.926526 -5.546469,-14.926526 0,0 4.404549,11.011371 0.407829,23.735623 z"
       id="path3908"
       inkscape:connector-curvature="0" />
    <path
       style="fill:none;stroke:#000000;stroke-width:1px;stroke-linecap:butt;stroke-linejoin:miter;stroke-opacity:1"
       d="m 56.443473,41.005029 c -3.42576,-0.652525 -2.039143,3.42576 0.489394,4.159852 2.528537,0.734091 5.546469,0 3.017932,-2.773235"
       id="path3910"
       inkscape:connector-curvature="0" />
    <path
       style="fill:none;stroke:#000000;stroke-width:1px;stroke-linecap:butt;stroke-linejoin:miter;stroke-opacity:1"
       d="m 55.056856,44.593921 c -3.099497,1.794445 0.244697,4.893942 1.71288,4.975508 1.468183,0.08157 4.159851,-1.549748 3.017931,-3.915154"
       id="path3912"
       inkscape:connector-curvature="0" />
    <path
       style="fill:none;stroke:#000000;stroke-width:1px;stroke-linecap:butt;stroke-linejoin:miter;stroke-opacity:1"
       d="m 54.567462,48.835338 c -0.734092,2.120708 4.486114,4.812377 4.486114,4.812377 l -1.71288,-3.915155"
       id="path3914"
       inkscape:connector-curvature="0" />
    <path
       style="fill:none;stroke:#000000;stroke-width:1px;stroke-linecap:butt;stroke-linejoin:miter;stroke-opacity:1"
       d="m 26.182594,47.611852 c -3.752023,-1.223486 -3.507326,4.486114 -3.507326,4.486114 0,0 0.652526,-2.039143 3.507326,-2.120708"
       id="path3916"
       inkscape:connector-curvature="0" />
    <path
       style="fill:none;stroke:#000000;stroke-width:1px;stroke-linecap:butt;stroke-linejoin:miter;stroke-opacity:1"
       d="m 24.959108,39.292149 c -3.833588,-4.893942 -6.198994,1.223486 -11.827028,-0.57096 -5.6280344,-1.794445 -2.202275,-7.99344 -2.202275,-7.99344 0,0 -3.262628,3.181063 -3.0179309,4.322983 0.2446972,1.14192 0.2446972,1.14192 0.2446972,1.14192 0,0 -4.4045485,-5.13864 -3.9151542,-8.319702 0.4893942,-3.181063 -1.8760114,3.507325 0.081566,6.606822 1.9575771,3.099497 1.9575771,3.262629 1.9575771,3.262629 0,0 -1.2234857,-0.734092 -2.6101028,-0.407829 -1.3866171,0.326263 -1.5497486,1.060354 -1.5497486,1.060354 0,0 1.3050514,-0.897222 6.4436913,1.957578 5.1386399,2.854799 7.5040449,4.486114 10.1141479,4.241417 2.610103,-0.244698 5.057074,0.244697 4.159852,3.588891 -0.897223,3.344194 3.425759,16.55784 18.923245,10.440411"
       id="path3920"
       inkscape:connector-curvature="0" />
    <path
       style="fill:none;stroke:#000000;stroke-width:1px;stroke-linecap:butt;stroke-linejoin:miter;stroke-opacity:1"
       d="m 33.441942,40.597201 c 1.14192,3.833588 -0.326263,3.99672 -1.060354,5.791166"
       id="path3922"
       inkscape:connector-curvature="0"
       sodipodi:nodetypes="cc" />
    <path
       style="fill:none;stroke:#000000;stroke-width:1px;stroke-linecap:butt;stroke-linejoin:miter;stroke-opacity:1"
       d="m 47.55281,35.866389 c 5.628035,1.957577 4.730812,4.241417 6.769955,5.954297"
       id="path3924"
       inkscape:connector-curvature="0" />
    <path
       style="fill:none;stroke:#000000;stroke-width:1px;stroke-linecap:butt;stroke-linejoin:miter;stroke-opacity:1"
       d="m 45.187405,40.678766 c 4.159851,2.446972 5.220205,6.362126 8.482834,6.769955"
       id="path3926"
       inkscape:connector-curvature="0" />
    <path
       style="fill:none;stroke:#000000;stroke-width:1px;stroke-linecap:butt;stroke-linejoin:miter;stroke-opacity:1"
       d="m 52.854582,40.678766 c -2.773235,1.71288 -3.262629,4.486115 -3.262629,4.486115"
       id="path3928"
       inkscape:connector-curvature="0" />
    <path
       style="fill:none;stroke:#000000;stroke-width:1px;stroke-linecap:butt;stroke-linejoin:miter;stroke-opacity:1"
       d="m 26.182594,46.062103 c 2.039143,-2.120708 4.730811,-1.14192 4.730811,-1.14192"
       id="path3930"
       inkscape:connector-curvature="0" />
    <path
       style="fill:none;stroke:#000000;stroke-width:1px;stroke-linecap:butt;stroke-linejoin:miter;stroke-opacity:1"
       d="m 45.513668,30.483052 c 3.181062,-0.163131 3.344194,-4.812377 3.344194,-4.812377 0,0 3.099497,1.631315 2.773234,4.56768 -0.326263,2.936366 -3.507326,5.7096 -3.507326,5.7096"
       id="path3932"
       inkscape:connector-curvature="0" />
    <path
       style="fill:none;stroke:#000000;stroke-width:1px;stroke-linecap:butt;stroke-linejoin:miter;stroke-opacity:1"
       d="m 45.595233,38.639624 c 0.08157,3.181062 -1.223485,4.078285 -0.815657,6.117428 0.407829,2.039143 2.120709,4.56768 -0.489394,9.298491"
       id="path3934"
       inkscape:connector-curvature="0" />
    <path
       style="fill:none;stroke:#000000;stroke-width:1px;stroke-linecap:butt;stroke-linejoin:miter;stroke-opacity:1"
       d="m 35.807348,35.376995 c 5.057074,6.443691 9.543188,5.7096 9.543188,5.7096"
       id="path3936"
       inkscape:connector-curvature="0" />
    <path
       style="fill:none;stroke:#000000;stroke-width:1px;stroke-linecap:butt;stroke-linejoin:miter;stroke-opacity:1"
       d="m 34.176034,37.089875 c 3.752022,7.340914 10.440411,6.198994 10.440411,6.525257"
       id="path3938"
       inkscape:connector-curvature="0" />
    <path
       style="fill:none;stroke:#000000;stroke-width:1px;stroke-linecap:butt;stroke-linejoin:miter;stroke-opacity:1"
       d="m 47.879073,43.044172 c 0.163132,2.8548 1.631315,7.585611 1.631315,7.585611 0,0 -3.017932,-3.915154 -3.344195,-8.890662"
       id="path3940"
       inkscape:connector-curvature="0" />
    <path
       style="fill:none;stroke:#000000;stroke-width:1px;stroke-linecap:butt;stroke-linejoin:miter;stroke-opacity:1"
       d="m 52.038925,30.401487 c 0.652525,3.099497 0.407828,7.993439 0.407828,7.993439"
       id="path3942"
       inkscape:connector-curvature="0" />
    <path
       style="fill:none;stroke:#000000;stroke-width:1px;stroke-linecap:butt;stroke-linejoin:miter;stroke-opacity:1"
       d="m 50.652307,32.685327 c 0.815658,2.039142 0.407829,4.567679 0.407829,4.567679"
       id="path3944"
       inkscape:connector-curvature="0" />
    <path
       style="fill:none;stroke:#000000;stroke-width:1px;stroke-linecap:butt;stroke-linejoin:miter;stroke-opacity:1"
       d="m 17.944457,38.639624 c 0.489394,2.936365 -1.060355,5.709599 -1.060355,5.709599"
       id="path3946"
       inkscape:connector-curvature="0" />
    <path
       style="fill:none;stroke:#000000;stroke-width:1px;stroke-linecap:butt;stroke-linejoin:miter;stroke-opacity:1"
       d="m 15.41592,39.373715 c 0.244697,1.305051 -0.57096,3.588891 -1.223486,3.915154"
       id="path3948"
       inkscape:connector-curvature="0" />
    <path
       style="fill:none;stroke:#000000;stroke-width:1px;stroke-linecap:butt;stroke-linejoin:miter;stroke-opacity:1"
       d="m 32.707849,45.980539 c 8.238137,5.546468 12.887382,2.610102 12.887382,2.610102"
       id="path3058"
       inkscape:connector-curvature="0" />
    <path
       style="fill:none;stroke:#000000;stroke-width:1px;stroke-linecap:butt;stroke-linejoin:miter;stroke-opacity:1"
       d="m 36.867701,50.956047 c 2.446971,0.978789 6.933085,1.223486 8.482833,0.08157"
       id="path3060"
       inkscape:connector-curvature="0" />
  </g>
  <path
     style="fill:none;stroke:#000000;stroke-width:1px;stroke-linecap:butt;stroke-linejoin:miter;stroke-opacity:1"
     d="m 50.244477,45.246447 c -0.326263,1.468183 1.549748,4.404549 1.549748,4.404549 0,0 -0.489394,-2.202274 -0.489394,-2.773234"
     id="path3056"
     inkscape:connector-curvature="0" />
</svg>
