<?xml version="1.0" encoding="UTF-8" standalone="no"?>
<!-- Created with Inkscape (http://www.inkscape.org/) -->

<svg
   xmlns:dc="http://purl.org/dc/elements/1.1/"
   xmlns:cc="http://creativecommons.org/ns#"
   xmlns:rdf="http://www.w3.org/1999/02/22-rdf-syntax-ns#"
   xmlns:svg="http://www.w3.org/2000/svg"
   xmlns="http://www.w3.org/2000/svg"
   xmlns:sodipodi="http://sodipodi.sourceforge.net/DTD/sodipodi-0.dtd"
   xmlns:inkscape="http://www.inkscape.org/namespaces/inkscape"
   id="svg2982"
   version="1.1"
   inkscape:version="0.48.0 r9654"
   width="72"
   height="72"
   sodipodi:docname="Crusher.png">
  <metadata
     id="metadata2988">
    <rdf:RDF>
      <cc:Work
         rdf:about="">
        <dc:format>image/svg+xml</dc:format>
        <dc:type
           rdf:resource="http://purl.org/dc/dcmitype/StillImage" />
        <dc:title></dc:title>
      </cc:Work>
    </rdf:RDF>
  </metadata>
  <defs
     id="defs2986" />
  <sodipodi:namedview
     pagecolor="#ffffff"
     bordercolor="#666666"
     borderopacity="1"
     objecttolerance="10"
     gridtolerance="10"
     guidetolerance="10"
     inkscape:pageopacity="0"
     inkscape:pageshadow="2"
     inkscape:window-width="1366"
     inkscape:window-height="706"
     id="namedview2984"
     showgrid="false"
     inkscape:zoom="7.57"
     inkscape:cx="47.234269"
     inkscape:cy="31.551922"
     inkscape:window-x="-8"
     inkscape:window-y="-8"
     inkscape:window-maximized="1"
     inkscape:current-layer="layer1" />
  <g
     inkscape:groupmode="layer"
     id="layer1"
     inkscape:label="Taso">
    <path
       style="fill:none;stroke:#000000;stroke-width:1px;stroke-linecap:butt;stroke-linejoin:miter;stroke-opacity:1"
       d="m 34.790523,23.823473 c -1.141729,0.792717 -1.68726,2.136853 -1.636594,3.504837 0.107643,2.906351 3.659849,5.705059 4.736276,6.243272 1.076426,0.538213 5.920344,2.798709 5.920344,2.798709 0,0 3.336922,-0.430571 3.659849,-1.937568 0.322928,-1.506996 -3.552207,-4.95156 -4.305705,-6.027987 C 42.411195,27.32831 42.62648,25.2831 40.904198,23.991389 40.356181,23.745341 39.837215,23.555069 39.347299,23.4149"
       id="path3003"
       inkscape:connector-curvature="0"
       sodipodi:nodetypes="csscsscc" />
    <path
       style="fill:none;stroke:#000000;stroke-width:1px;stroke-linecap:butt;stroke-linejoin:miter;stroke-opacity:1"
       d="m 34.230355,30.772874 c -6.5662,3.659849 -7.857912,13.347686 -6.350915,15.392896 1.506997,2.04521 5.166846,2.691065 5.166846,2.691065"
       id="path3005"
       inkscape:connector-curvature="0" />
    <path
       style="fill:none;stroke:#000000;stroke-width:1px;stroke-linecap:butt;stroke-linejoin:miter;stroke-opacity:1"
       d="m 36.383208,37.339074 c -0.538213,2.04521 -2.368138,4.736276 -4.198063,5.382132"
       id="path3007"
       inkscape:connector-curvature="0" />
    <path
       style="fill:none;stroke:#000000;stroke-width:1px;stroke-linecap:butt;stroke-linejoin:miter;stroke-opacity:1"
       d="m 33.261572,42.398278 c 2.368137,1.399354 2.368137,3.444564 2.368137,3.444564 4.843919,0.107642 5.274489,2.583423 4.413348,3.767492 -0.861141,1.184069 -5.382131,3.659849 -7.319699,-0.753499"
       id="path3009"
       inkscape:connector-curvature="0" />
    <path
       style="fill:none;stroke:#000000;stroke-width:1px;stroke-linecap:butt;stroke-linejoin:miter;stroke-opacity:1"
       d="m 44.133477,29.265877 c 5.382131,-0.215285 8.934338,9.041981 8.934338,9.041981"
       id="path3011"
       inkscape:connector-curvature="0"
       sodipodi:nodetypes="cc" />
    <path
       style="fill:none;stroke:#000000;stroke-width:1px;stroke-linecap:butt;stroke-linejoin:miter;stroke-opacity:1"
       d="m 55.758881,35.93972 c -2.368138,1.184069 -3.552207,3.982778 -2.475781,4.843919 1.076427,0.861141 3.336922,1.506996 4.628633,-0.107643 1.291712,-1.61464 1.184069,-4.09042 -2.152852,-4.736276 z"
       id="path3013"
       inkscape:connector-curvature="0" />
    <path
       style="fill:none;stroke:#000000;stroke-width:1px;stroke-linecap:butt;stroke-linejoin:miter;stroke-opacity:1"
       d="m 56.835306,41.967707 c -2.798708,3.65985 -3.229278,3.336921 -5.166845,2.906351 -1.937568,-0.430571 -4.843918,-5.382131 -4.520991,-8.503767"
       id="path3015"
       inkscape:connector-curvature="0"
       sodipodi:nodetypes="csc" />
    <path
       style="fill:none;stroke:#000000;stroke-width:1px;stroke-linecap:butt;stroke-linejoin:miter;stroke-opacity:1"
       d="m 47.147471,38.415501 c -0.430571,6.99677 0.968783,11.302475 1.076426,12.701829 0.107642,1.399355 0.215285,7.104414 -8.826696,7.642627 C 30.355221,59.29817 25.618945,54.561894 26.049516,50.363832 25.206617,37.897287 10.982676,39.479506 4.7362756,47.565124 7.0760826,33.975057 22.322077,36.390785 27.556512,40.783638"
       id="path3017"
       inkscape:connector-curvature="0"
       sodipodi:nodetypes="cssccc" />
    <path
       style="fill:none;stroke:#000000;stroke-width:1px;stroke-linecap:butt;stroke-linejoin:miter;stroke-opacity:1"
       d="m 35.091496,40.353068 c -0.322928,1.722282 -0.430571,1.506997 -0.322928,3.659849"
       id="path3021"
       inkscape:connector-curvature="0"
       sodipodi:nodetypes="cc" />
    <path
       style="fill:none;stroke:#000000;stroke-width:1px;stroke-linecap:butt;stroke-linejoin:miter;stroke-opacity:1"
       d="m 33.132856,31.412421 c 0.07612,-1.065607 -1.316857,-2.341186 -1.316857,-2.341186 0,0 0.30446,-0.456689 0.456689,-1.217837 0.15223,-0.761148 -0.761148,-2.587904 -0.761148,-2.587904 0,0 0.913378,-0.608919 1.141723,-1.141723 0.228344,-0.532804 0.532803,-1.826756 0.532803,-1.826756 0,0 0.989493,0.15223 1.750641,-0.152229 0.761149,-0.30446 1.141723,-0.913378 1.141723,-0.913378 0,0 0.608919,0.456689 1.446182,0.837263 0.837263,0.380574 2.435674,0 2.435674,0 0,0 -1.446181,1.864813 -1.217836,3.082651 -2.740134,-2.283445 -4.186316,-1.141723 -4.186316,-1.141723"
       id="path3023"
       inkscape:connector-curvature="0"
       sodipodi:nodetypes="ccscscscsccc" />
    <path
       style="fill:none;stroke:#000000;stroke-width:1px;stroke-linecap:butt;stroke-linejoin:miter;stroke-opacity:1"
       d="m 43.334494,38.344856 c 0.130784,1.700195 -0.260253,3.483631 -0.260253,3.483631"
       id="path3025"
       inkscape:connector-curvature="0"
       sodipodi:nodetypes="cc" />
    <path
       style="fill:none;stroke:#000000;stroke-width:1px;stroke-linecap:butt;stroke-linejoin:miter;stroke-opacity:1"
       d="m 38.627578,43.397898 c 0.74111,0.130784 3.661958,0 3.661958,0"
       id="path3027"
       inkscape:connector-curvature="0" />
  </g>
</svg>
