<?xml version="1.0" encoding="UTF-8" standalone="no"?>
<!-- Created with Inkscape (http://www.inkscape.org/) -->

<svg
   xmlns:dc="http://purl.org/dc/elements/1.1/"
   xmlns:cc="http://creativecommons.org/ns#"
   xmlns:rdf="http://www.w3.org/1999/02/22-rdf-syntax-ns#"
   xmlns:svg="http://www.w3.org/2000/svg"
   xmlns="http://www.w3.org/2000/svg"
   xmlns:sodipodi="http://sodipodi.sourceforge.net/DTD/sodipodi-0.dtd"
   xmlns:inkscape="http://www.inkscape.org/namespaces/inkscape"
   id="svg3848"
   version="1.1"
   inkscape:version="0.48.0 r9654"
   width="72"
   height="72"
   sodipodi:docname="Deaht beneth.png">
  <metadata
     id="metadata3854">
    <rdf:RDF>
      <cc:Work
         rdf:about="">
        <dc:format>image/svg+xml</dc:format>
        <dc:type
           rdf:resource="http://purl.org/dc/dcmitype/StillImage" />
        <dc:title></dc:title>
      </cc:Work>
    </rdf:RDF>
  </metadata>
  <defs
     id="defs3852" />
  <sodipodi:namedview
     pagecolor="#ffffff"
     bordercolor="#666666"
     borderopacity="1"
     objecttolerance="10"
     gridtolerance="10"
     guidetolerance="10"
     inkscape:pageopacity="0"
     inkscape:pageshadow="2"
     inkscape:window-width="1366"
     inkscape:window-height="706"
     id="namedview3850"
     showgrid="false"
     inkscape:zoom="7.04"
     inkscape:cx="36.183308"
     inkscape:cy="36.5498"
     inkscape:window-x="-8"
     inkscape:window-y="-8"
     inkscape:window-maximized="1"
     inkscape:current-layer="layer5" />
  <g
     inkscape:groupmode="layer"
     id="layer5"
     inkscape:label="Taso">
    <path
       style="fill:none;stroke:#000000;stroke-width:1px;stroke-linecap:butt;stroke-linejoin:miter;stroke-opacity:1"
       d="m 34.762887,21.154639 c -3.958763,1.237114 -3.958763,5.072165 -3.340207,6.43299 0.618557,1.360825 7.051547,5.938144 7.051547,5.938144 0,0 2.597938,-1.237113 2.845361,-1.979381 0.247422,-0.742268 -1.85567,-4.453609 -2.103093,-5.567011 -0.247423,-1.113402 0.742268,-5.072165 -4.453608,-4.824742 z"
       id="path3919"
       inkscape:connector-curvature="0" />
    <path
       style="fill:none;stroke:#000000;stroke-width:1px;stroke-linecap:butt;stroke-linejoin:miter;stroke-opacity:1"
       d="m 32.454014,29.136207 c -1.574588,-0.174954 -4.286379,3.67404 -4.286379,3.67404"
       id="path3921"
       inkscape:connector-curvature="0" />
    <path
       style="fill:none;stroke:#000000;stroke-width:1px;stroke-linecap:butt;stroke-linejoin:miter;stroke-opacity:1"
       d="m 41.551636,31.323136 c 2.235197,0.189239 2.986935,0.585903 4.636287,-2.274406"
       id="path3923"
       inkscape:connector-curvature="0"
       sodipodi:nodetypes="cc" />
    <path
       style="fill:none;stroke:#000000;stroke-width:1px;stroke-linecap:butt;stroke-linejoin:miter;stroke-opacity:1"
       d="m 19.769831,23.100286 c -2.099451,-0.174955 -2.624314,2.274405 -1.312157,3.499085 1.312157,1.22468 4.198902,0.962248 4.373856,-0.61234 0.174955,-1.574588 -0.699817,-2.886745 -3.061699,-2.886745 z"
       id="path3925"
       inkscape:connector-curvature="0" />
    <path
       style="fill:none;stroke:#000000;stroke-width:1px;stroke-linecap:butt;stroke-linejoin:miter;stroke-opacity:1"
       d="m 47.237649,24.324965 c -2.011974,-0.262431 -2.711791,3.761517 -0.962248,4.198903 1.749542,0.437385 5.948444,-1.924497 0.962248,-4.198903 z"
       id="path3927"
       inkscape:connector-curvature="0" />
    <path
       style="fill:none;stroke:#000000;stroke-width:1px;stroke-linecap:butt;stroke-linejoin:miter;stroke-opacity:1"
       d="m 22.131713,27.474142 c 2.847916,6.537412 -0.778068,13.252473 -6.210876,16.795609 3.49391,-4.981545 7.002814,-8.541633 4.111425,-14.696158 0.270321,5.243741 -2.057681,7.163955 -6.99817,9.272576 3.966257,-3.133541 5.78417,-5.887241 5.336105,-10.05987 -0.218276,1.26878 -4.112263,2.631358 -6.035922,1.137203 0,0 5.336105,-0.524863 6.123399,-2.886746"
       id="path3929"
       inkscape:connector-curvature="0"
       sodipodi:nodetypes="ccccccc" />
    <path
       inkscape:connector-curvature="0"
       id="path3931"
       d="m 46.72158,28.348913 c -3.643588,5.746332 1.251832,13.56145 6.210876,16.795609 -3.49391,-4.981545 -7.002814,-8.541633 -4.111425,-14.696158 -0.270321,5.243741 2.057681,7.163955 6.99817,9.272576 -3.664878,-2.798799 -5.528082,-5.069348 -5.773491,-9.622484 0.962138,0.496578 2.761204,2.316306 6.473308,0.699817 0,0 -6.210876,-0.787294 -6.99817,-3.149177"
       style="fill:none;stroke:#000000;stroke-width:1px;stroke-linecap:butt;stroke-linejoin:miter;stroke-opacity:1"
       sodipodi:nodetypes="ccccccc" />
    <path
       style="fill:none;stroke:#000000;stroke-width:1px;stroke-linecap:butt;stroke-linejoin:miter;stroke-opacity:1"
       d="M 28.430066,32.635293 C 25.805753,28.786299 22.919007,26.599371 22.919007,26.599371"
       id="path3933"
       inkscape:connector-curvature="0" />
    <path
       style="fill:none;stroke:#000000;stroke-width:1px;stroke-linecap:butt;stroke-linejoin:miter;stroke-opacity:1"
       d="m 31.229335,33.772495 c -0.962249,3.0617 0.699817,5.073674 2.711791,4.986196"
       id="path3935"
       inkscape:connector-curvature="0"
       sodipodi:nodetypes="cc" />
    <path
       style="fill:none;stroke:#000000;stroke-width:1px;stroke-linecap:butt;stroke-linejoin:miter;stroke-opacity:1"
       d="m 40.589387,34.209881 c 0.524863,2.974223 -0.699817,3.848993 -2.624314,4.111425"
       id="path3937"
       inkscape:connector-curvature="0"
       sodipodi:nodetypes="cc" />
    <path
       style="fill:none;stroke:#000000;stroke-width:1px;stroke-linecap:butt;stroke-linejoin:miter;stroke-opacity:1"
       d="m 32.454014,38.758692 c -0.174954,4.023948 0.962248,7.523033 3.674039,8.485281 2.711791,0.962249 7.785465,5.511059 2.886746,5.423582"
       id="path3939"
       inkscape:connector-curvature="0"
       sodipodi:nodetypes="csc" />
    <path
       style="fill:none;stroke:#000000;stroke-width:1px;stroke-linecap:butt;stroke-linejoin:miter;stroke-opacity:1"
       d="m 39.452185,38.408783 c -0.874772,4.286379 6.735738,7.173124 7.960418,8.83519 1.22468,1.662065 0.61234,11.284548 -8.572758,9.972392 -0.579158,-0.08274 -1.10719,-0.188428 -1.586773,-0.313696 m -1.284821,-0.426468 c -0.871114,-0.362499 -1.509263,-0.807566 -1.945138,-1.296459 m -0.732628,-1.569377 c -0.248196,-2.228546 2.445918,-4.540262 5.899268,-4.179464"
       id="path3941"
       inkscape:connector-curvature="0"
       sodipodi:nodetypes="cssccccc" />
    <path
       style="fill:none;stroke:#000000;stroke-width:1px;stroke-linecap:butt;stroke-linejoin:miter;stroke-opacity:1"
       d="m 47.237649,53.979712 c 7.523033,3.236653 13.558955,-3.848994 13.558955,-3.848994 0,0 -2.361883,10.05987 -16.183269,6.560785"
       id="path3943"
       inkscape:connector-curvature="0" />
    <path
       style="fill:none;stroke:#000000;stroke-width:1px;stroke-linecap:butt;stroke-linejoin:miter;stroke-opacity:1"
       d="m 23.706301,33.510064 c 0.874771,1.399634 1.137203,2.536837 6.910694,2.361882"
       id="path3945"
       inkscape:connector-curvature="0"
       sodipodi:nodetypes="cc" />
    <path
       style="fill:none;stroke:#000000;stroke-width:1px;stroke-linecap:butt;stroke-linejoin:miter;stroke-opacity:1"
       d="m 40.589387,35.522038 c 2.886745,0 4.373857,0.08748 4.898719,-0.437386"
       id="path3947"
       inkscape:connector-curvature="0" />
    <path
       style="fill:none;stroke:#000000;stroke-width:1px;stroke-linecap:butt;stroke-linejoin:miter;stroke-opacity:1"
       d="m 22.131713,23.27524 1.399634,-2.099451 -1.749542,-0.962249 -1.487111,2.711791"
       id="path3953"
       inkscape:connector-curvature="0" />
    <path
       style="fill:none;stroke:#000000;stroke-width:1px;stroke-linecap:butt;stroke-linejoin:miter;stroke-opacity:1"
       d="m 46.362877,23.88758 -1.399634,-2.361883 -1.224679,1.137203 1.487111,2.711791"
       id="path3955"
       inkscape:connector-curvature="0"
       sodipodi:nodetypes="cccc" />
    <path
       style="fill:none;stroke:#000000;stroke-width:1px;stroke-linecap:butt;stroke-linejoin:miter;stroke-opacity:1"
       d="m 47.325126,53.629803 c 3.086636,-0.394587 4.821815,-1.256398 5.77349,-4.111425 0.408439,1.427848 0.270656,1.957247 -0.262431,3.236654 0,0 2.711791,-0.174954 4.286379,-4.111425 1.574589,-3.936471 0.787294,-7.523033 0.787294,-7.523033 0,0 0.787295,6.210876 1.662066,7.435555 0.874771,1.22468 5.16115,-9.797438 5.16115,-9.797438 0,0 -1.487111,9.884916 -2.361882,10.934642 -0.874771,1.049725 6.648262,-1.137203 6.648262,-1.137203 -3.794267,3.009737 -7.309208,6.253723 -11.809413,8.397804 1.316957,0.298348 1.937068,0.898909 2.274406,2.186928 0,0 -3.848994,0.174955 -12.859138,-2.099451"
       id="path3959"
       inkscape:connector-curvature="0"
       sodipodi:nodetypes="cccscscscccc" />
    <path
       style="fill:none;stroke:#000000;stroke-width:1px;stroke-linecap:butt;stroke-linejoin:miter;stroke-opacity:1"
       d="m 39.714616,55.466823 c -1.749543,0.437386 -4.286379,2.536837 -4.286379,2.536837 0.609167,-1.302395 0.69584,-1.842983 0,-2.886746 -1.769895,-0.301559 -2.716726,0.707818 -4.28638,0.787295 0,0 1.749543,-2.624314 2.799269,-2.361883 2.096377,0.383074 3.876039,1.867455 5.77349,1.924497 z"
       id="path3963"
       inkscape:connector-curvature="0"
       sodipodi:nodetypes="cccccc" />
  </g>
</svg>
