<?xml version="1.0" encoding="UTF-8" standalone="no"?>
<!-- Created with Inkscape (http://www.inkscape.org/) -->

<svg
   xmlns:dc="http://purl.org/dc/elements/1.1/"
   xmlns:cc="http://creativecommons.org/ns#"
   xmlns:rdf="http://www.w3.org/1999/02/22-rdf-syntax-ns#"
   xmlns:svg="http://www.w3.org/2000/svg"
   xmlns="http://www.w3.org/2000/svg"
   xmlns:sodipodi="http://sodipodi.sourceforge.net/DTD/sodipodi-0.dtd"
   xmlns:inkscape="http://www.inkscape.org/namespaces/inkscape"
   id="svg3838"
   version="1.1"
   inkscape:version="0.48.0 r9654"
   width="72"
   height="72"
   sodipodi:docname="Diver.png">
  <metadata
     id="metadata3844">
    <rdf:RDF>
      <cc:Work
         rdf:about="">
        <dc:format>image/svg+xml</dc:format>
        <dc:type
           rdf:resource="http://purl.org/dc/dcmitype/StillImage" />
        <dc:title></dc:title>
      </cc:Work>
    </rdf:RDF>
  </metadata>
  <defs
     id="defs3842" />
  <sodipodi:namedview
     pagecolor="#ffffff"
     bordercolor="#666666"
     borderopacity="1"
     objecttolerance="10"
     gridtolerance="10"
     guidetolerance="10"
     inkscape:pageopacity="0"
     inkscape:pageshadow="2"
     inkscape:window-width="1366"
     inkscape:window-height="706"
     id="namedview3840"
     showgrid="false"
     inkscape:zoom="5.7157798"
     inkscape:cx="39.578222"
     inkscape:cy="37.547308"
     inkscape:window-x="-8"
     inkscape:window-y="-8"
     inkscape:window-maximized="1"
     inkscape:current-layer="layer4" />
  <g
     inkscape:groupmode="layer"
     id="layer4"
     inkscape:label="Taso">
    <path
       style="fill:none;stroke:#000000;stroke-width:1px;stroke-linecap:butt;stroke-linejoin:miter;stroke-opacity:1"
       d="m 43.301178,36.396809 c 1.924497,3.674039 0.874771,4.636288 -0.61234,4.636288"
       id="path3886"
       inkscape:connector-curvature="0" />
    <path
       style="fill:none;stroke:#000000;stroke-width:1px;stroke-linecap:butt;stroke-linejoin:miter;stroke-opacity:1"
       d="m 36.652916,37.009149 c -0.699817,2.974222 -0.262431,4.286379 1.924497,4.373856"
       id="path3888"
       inkscape:connector-curvature="0" />
    <path
       style="fill:none;stroke:#000000;stroke-width:1px;stroke-linecap:butt;stroke-linejoin:miter;stroke-opacity:1"
       d="m 39.014799,27.649096 c -3.848994,1.22468 -3.848994,4.373857 -3.236654,5.686014 0.61234,1.312156 6.473308,4.461333 6.473308,4.461333 0,0 2.186928,-1.312157 2.449359,-2.186928 0.262432,-0.874771 -1.487111,-3.586562 -2.011974,-5.423582 -0.524862,-1.83702 -2.799268,-2.44936 -3.674039,-2.536837 z"
       id="path3890"
       inkscape:connector-curvature="0" />
    <path
       style="fill:none;stroke:#000000;stroke-width:1px;stroke-linecap:butt;stroke-linejoin:miter;stroke-opacity:1"
       d="m 36.303008,34.209881 c -3.761517,2.361882 -5.77349,5.860967 -3.936471,7.785464 1.83702,1.924497 0.262432,5.073674 1.22468,5.686014 0.962248,0.612339 4.636288,-1.749543 3.936471,-3.411608 -0.699817,-1.662066 -2.974223,-2.186929 -1.312157,-4.461334"
       id="path3892"
       inkscape:connector-curvature="0" />
    <path
       style="fill:none;stroke:#000000;stroke-width:1px;stroke-linecap:butt;stroke-linejoin:miter;stroke-opacity:1"
       d="m 37.790119,41.470482 c 0.699817,3.324131 -0.437385,3.236654 -0.437385,3.236654"
       id="path3894"
       inkscape:connector-curvature="0" />
    <path
       style="fill:none;stroke:#000000;stroke-width:1px;stroke-linecap:butt;stroke-linejoin:miter;stroke-opacity:1"
       d="m 34.553466,47.681359 c -0.962249,0.874771 -1.399634,1.924496 -1.749543,3.499085"
       id="path3896"
       inkscape:connector-curvature="0"
       sodipodi:nodetypes="cc" />
    <path
       style="fill:none;stroke:#000000;stroke-width:1px;stroke-linecap:butt;stroke-linejoin:miter;stroke-opacity:1"
       d="m 43.651087,41.033097 c 0.349908,3.674039 1.837019,6.035921 0.612339,9.797438 -1.224679,3.761516 -6.035921,9.972393 -13.034091,5.860968 -2.762595,-1.623024 -3.943876,-3.341472 -4.248804,-4.90242 m 0.110322,-2.186818 c 0.407468,-1.387027 1.376383,-2.470548 2.126508,-2.970632"
       id="path3898"
       inkscape:connector-curvature="0"
       sodipodi:nodetypes="cssccc" />
    <path
       style="fill:none;stroke:#000000;stroke-width:1px;stroke-linecap:butt;stroke-linejoin:miter;stroke-opacity:1"
       d="m 27.730249,47.856313 c -0.874771,-3.499085 -15.83336,-11.809412 -15.83336,-11.809412 0,0 11.022118,3.411608 21.431897,7.960418"
       id="path3900"
       inkscape:connector-curvature="0" />
    <path
       style="fill:none;stroke:#000000;stroke-width:1px;stroke-linecap:butt;stroke-linejoin:miter;stroke-opacity:1"
       d="m 27.205387,47.243973 c -6.298353,-4.723765 -12.334275,-1.312157 -12.334275,-1.312157 0,0 1.574588,-4.373856 -0.349909,-7.872942"
       id="path3902"
       inkscape:connector-curvature="0" />
    <path
       style="fill:none;stroke:#000000;stroke-width:1px;stroke-linecap:butt;stroke-linejoin:miter;stroke-opacity:1"
       d="m 27.817727,41.645437 c -5.248628,-3.499085 -5.248628,-7.173125 -5.248628,-7.173125 0,0 -4.811242,3.499085 -7.960419,2.44936"
       id="path3904"
       inkscape:connector-curvature="0" />
    <path
       style="fill:none;stroke:#000000;stroke-width:1px;stroke-linecap:butt;stroke-linejoin:miter;stroke-opacity:1"
       d="m 29.042406,53.10494 c -2.186928,-0.524862 -4.286379,-4.461333 -4.286379,-4.461333 0,0 2.186928,1.137203 2.886745,1.22468 0.699817,0.08748 1.399634,3.236653 1.399634,3.236653 z"
       id="path3906"
       inkscape:connector-curvature="0" />
    <path
       style="fill:none;stroke:#000000;stroke-width:1px;stroke-linecap:butt;stroke-linejoin:miter;stroke-opacity:1"
       d="m 44.783505,35.938144 c 1.608248,0.247423 0.989691,2.103093 2.103093,2.659794 1.113402,0.556701 2.041237,0.371134 2.041237,0.371134"
       id="path3908"
       inkscape:connector-curvature="0" />
    <path
       style="fill:none;stroke:#000000;stroke-width:1px;stroke-linecap:butt;stroke-linejoin:miter;stroke-opacity:1"
       d="m 44.28866,40.762887 c 2.041237,2.226804 4.752273,2.706641 6.23681,1.222105"
       id="path3910"
       inkscape:connector-curvature="0"
       sodipodi:nodetypes="cc" />
    <path
       style="fill:none;stroke:#000000;stroke-width:1px;stroke-linecap:butt;stroke-linejoin:miter;stroke-opacity:1"
       d="m 49.608247,37.979381 c -1.113402,0.680413 -0.804123,3.030928 0.618557,3.587629 1.422681,0.556701 2.969072,0.06186 2.845361,-1.42268 -0.123711,-1.484536 -0.909185,-2.851578 -3.463918,-2.164949 z"
       id="path3912"
       inkscape:connector-curvature="0"
       sodipodi:nodetypes="cssc" />
    <path
       style="fill:none;stroke:#000000;stroke-width:1px;stroke-linecap:butt;stroke-linejoin:miter;stroke-opacity:1"
       d="m 51.216495,37.42268 c 0.494845,-0.804123 0.618557,-4.020618 0.618557,-4.020618 1.19631,-0.01279 1.954154,-0.32182 2.84536,-1.237114 -0.287355,1.165457 0.126984,1.786402 0.742268,2.845361 0,0 -2.350515,1.731959 -2.907216,3.030928"
       id="path3916"
       inkscape:connector-curvature="0"
       sodipodi:nodetypes="ccccc" />
  </g>
</svg>
