<?xml version="1.0" encoding="UTF-8" standalone="no"?>
<!-- Created with Inkscape (http://www.inkscape.org/) -->

<svg
   xmlns:dc="http://purl.org/dc/elements/1.1/"
   xmlns:cc="http://creativecommons.org/ns#"
   xmlns:rdf="http://www.w3.org/1999/02/22-rdf-syntax-ns#"
   xmlns:svg="http://www.w3.org/2000/svg"
   xmlns="http://www.w3.org/2000/svg"
   xmlns:sodipodi="http://sodipodi.sourceforge.net/DTD/sodipodi-0.dtd"
   xmlns:inkscape="http://www.inkscape.org/namespaces/inkscape"
   id="svg2982"
   version="1.1"
   inkscape:version="0.48.0 r9654"
   width="72"
   height="72"
   sodipodi:docname="Fighter.png">
  <metadata
     id="metadata2988">
    <rdf:RDF>
      <cc:Work
         rdf:about="">
        <dc:format>image/svg+xml</dc:format>
        <dc:type
           rdf:resource="http://purl.org/dc/dcmitype/StillImage" />
        <dc:title></dc:title>
      </cc:Work>
    </rdf:RDF>
  </metadata>
  <defs
     id="defs2986" />
  <sodipodi:namedview
     pagecolor="#ffffff"
     bordercolor="#666666"
     borderopacity="1"
     objecttolerance="10"
     gridtolerance="10"
     guidetolerance="10"
     inkscape:pageopacity="0"
     inkscape:pageshadow="2"
     inkscape:window-width="1366"
     inkscape:window-height="706"
     id="namedview2984"
     showgrid="false"
     inkscape:zoom="8.0833333"
     inkscape:cx="36.215597"
     inkscape:cy="34.273731"
     inkscape:window-x="-8"
     inkscape:window-y="-8"
     inkscape:window-maximized="1"
     inkscape:current-layer="layer4" />
  <g
     inkscape:groupmode="layer"
     id="layer4"
     inkscape:label="Taso">
    <path
       style="fill:none;stroke:#000000;stroke-width:1px;stroke-linecap:butt;stroke-linejoin:miter;stroke-opacity:1"
       d="m 38.314982,42.170299 c -2.974222,2.361883 0.08748,3.936471 1.574588,3.67404 1.487111,-0.262432 2.974223,-3.67404 -1.574588,-3.67404 z"
       id="path3229"
       inkscape:connector-curvature="0" />
    <path
       style="fill:none;stroke:#000000;stroke-width:1px;stroke-linecap:butt;stroke-linejoin:miter;stroke-opacity:1"
       d="m 42.601361,38.758691 c -1.662065,1.312157 0.349909,3.324131 1.924497,3.0617 1.574588,-0.262431 2.44936,-5.686013 -1.924497,-3.0617 z"
       id="path3231"
       inkscape:connector-curvature="0" />
    <path
       style="fill:none;stroke:#000000;stroke-width:1px;stroke-linecap:butt;stroke-linejoin:miter;stroke-opacity:1"
       d="m 36.040577,24.849828 c -4.946993,6.096358 3.353368,8.856735 7.697987,10.67221 0,0 1.83702,-2.011974 1.749542,-2.536837 -0.08748,-0.524863 -2.09945,-10.67221 -9.447529,-8.135373 z"
       id="path3233"
       inkscape:connector-curvature="0"
       sodipodi:nodetypes="ccsc" />
    <path
       style="fill:none;stroke:#000000;stroke-width:1px;stroke-linecap:butt;stroke-linejoin:miter;stroke-opacity:1"
       d="m 36.390485,31.935475 c -5.860968,3.149177 -3.674039,11.022119 0.787294,12.596707"
       id="path3235"
       inkscape:connector-curvature="0"
       sodipodi:nodetypes="cc" />
    <path
       style="fill:none;stroke:#000000;stroke-width:1px;stroke-linecap:butt;stroke-linejoin:miter;stroke-opacity:1"
       d="M 38.140028,41.907868 C 35.165805,38.671214 37.177779,37.096626 37.177779,37.096626"
       id="path3237"
       inkscape:connector-curvature="0" />
    <path
       style="fill:none;stroke:#000000;stroke-width:1px;stroke-linecap:butt;stroke-linejoin:miter;stroke-opacity:1"
       d="m 39.102276,42.345254 -0.699817,-2.799268 1.399634,-1.662066 1.399634,2.361883 -0.699817,2.536836"
       id="path3239"
       inkscape:connector-curvature="0" />
    <path
       style="fill:none;stroke:#000000;stroke-width:1px;stroke-linecap:butt;stroke-linejoin:miter;stroke-opacity:1"
       d="m 43.826041,35.871946 c 0,0 0.174954,1.83702 0.174954,2.624314"
       id="path3241"
       inkscape:connector-curvature="0" />
    <path
       style="fill:none;stroke:#000000;stroke-width:1px;stroke-linecap:butt;stroke-linejoin:miter;stroke-opacity:1"
       d="m 43.913518,42.257777 c 0.437386,6.823216 -2.011974,9.010144 -9.010144,8.485281 -6.99817,-0.524863 -6.298353,-6.648262 -4.898719,-8.310327 1.399634,-1.662066 -9.097621,-1.924497 -9.097621,-1.924497 0,0 6.823215,-3.848994 12.071843,-2.099451"
       id="path3243"
       inkscape:connector-curvature="0"
       sodipodi:nodetypes="csscc" />
    <path
       style="fill:none;stroke:#000000;stroke-width:1px;stroke-linecap:butt;stroke-linejoin:miter;stroke-opacity:1"
       d="m 43.913518,38.321306 4.54881,-15.133543 c 0,0 1.137203,9.360053 -3.411607,15.22102"
       id="path3245"
       inkscape:connector-curvature="0"
       sodipodi:nodetypes="ccc" />
    <path
       style="fill:none;stroke:#000000;stroke-width:1px;stroke-linecap:butt;stroke-linejoin:miter;stroke-opacity:1"
       d="m 42.688838,41.208051 -0.874771,2.711791 1.487111,0.524863 0.874771,-2.624314"
       id="path3247"
       inkscape:connector-curvature="0" />
  </g>
</svg>
