<?xml version="1.0" encoding="UTF-8" standalone="no"?>
<!-- Created with Inkscape (http://www.inkscape.org/) -->

<svg
   xmlns:dc="http://purl.org/dc/elements/1.1/"
   xmlns:cc="http://creativecommons.org/ns#"
   xmlns:rdf="http://www.w3.org/1999/02/22-rdf-syntax-ns#"
   xmlns:svg="http://www.w3.org/2000/svg"
   xmlns="http://www.w3.org/2000/svg"
   xmlns:sodipodi="http://sodipodi.sourceforge.net/DTD/sodipodi-0.dtd"
   xmlns:inkscape="http://www.inkscape.org/namespaces/inkscape"
   id="svg3012"
   version="1.1"
   inkscape:version="0.48.0 r9654"
   width="72"
   height="72"
   sodipodi:docname="Hero.png">
  <metadata
     id="metadata3018">
    <rdf:RDF>
      <cc:Work
         rdf:about="">
        <dc:format>image/svg+xml</dc:format>
        <dc:type
           rdf:resource="http://purl.org/dc/dcmitype/StillImage" />
        <dc:title></dc:title>
      </cc:Work>
    </rdf:RDF>
  </metadata>
  <defs
     id="defs3016" />
  <sodipodi:namedview
     pagecolor="#ffffff"
     bordercolor="#666666"
     borderopacity="1"
     objecttolerance="10"
     gridtolerance="10"
     guidetolerance="10"
     inkscape:pageopacity="0"
     inkscape:pageshadow="2"
     inkscape:window-width="1366"
     inkscape:window-height="706"
     id="namedview3014"
     showgrid="false"
     inkscape:zoom="12.250723"
     inkscape:cx="35.314791"
     inkscape:cy="28.606595"
     inkscape:window-x="-8"
     inkscape:window-y="-8"
     inkscape:window-maximized="1"
     inkscape:current-layer="layer1" />
  <g
     inkscape:groupmode="layer"
     id="layer1"
     inkscape:label="Taso">
    <path
       style="fill:none;stroke:#000000;stroke-width:1px;stroke-linecap:butt;stroke-linejoin:miter;stroke-opacity:1"
       d="m 33.241309,35.172129 c -7.872942,0 -8.310328,3.67404 -8.310328,3.67404 0,0 11.89689,2.799268 8.310328,-3.67404 z"
       id="path3023"
       inkscape:connector-curvature="0" />
    <path
       style="fill:none;stroke:#000000;stroke-width:1px;stroke-linecap:butt;stroke-linejoin:miter;stroke-opacity:1"
       d="m 36.215531,29.136207 c -5.336105,-7.173124 -9.709961,-4.986196 -9.709961,-4.986196 0,0 3.93647,1.924497 2.974222,4.198902 -0.962248,2.274406 -2.186928,2.711791 -2.186928,2.711791 l 8.397804,0.787294"
       id="path3025"
       inkscape:connector-curvature="0" />
    <path
       style="fill:none;stroke:#000000;stroke-width:1px;stroke-linecap:butt;stroke-linejoin:miter;stroke-opacity:1"
       d="M 34.465988,32.022953 C 35.44433,37.341995 47.12012,41.509195 45.313152,34.647266 44.525858,32.022953 39.88957,22.750377 34.465988,26.774325"
       id="path3029"
       inkscape:connector-curvature="0"
       sodipodi:nodetypes="ccc" />
    <path
       style="fill:none;stroke:#000000;stroke-width:1px;stroke-linecap:butt;stroke-linejoin:miter;stroke-opacity:1"
       d="m 40.414433,26.774325 c 0.699817,-1.137203 3.848994,-4.723765 3.848994,-4.723765 0,0 -0.962249,3.848994 -0.699817,4.811242 0.262431,0.962249 1.137202,1.399634 1.137202,1.399634 l -1.574588,1.312157"
       id="path3031"
       inkscape:connector-curvature="0" />
    <path
       style="fill:none;stroke:#000000;stroke-width:1px;stroke-linecap:butt;stroke-linejoin:miter;stroke-opacity:1"
       d="m 33.871196,35.766922 c 1.137202,-0.174954 1.032178,-2.169381 1.032178,-2.169381"
       id="path3033"
       inkscape:connector-curvature="0"
       sodipodi:nodetypes="cc" />
    <path
       style="fill:none;stroke:#000000;stroke-width:1px;stroke-linecap:butt;stroke-linejoin:miter;stroke-opacity:1"
       d="m 26.768001,45.319476 c -8.397804,0.349909 -6.210876,10.409778 -0.08748,10.147347 6.123399,-0.262432 6.735739,-9.010144 0.08748,-10.147347 z"
       id="path3035"
       inkscape:connector-curvature="0" />
    <path
       style="fill:none;stroke:#000000;stroke-width:1px;stroke-linecap:butt;stroke-linejoin:miter;stroke-opacity:1"
       d="m 27.030432,39.371031 c -3.236653,3.324131 -2.711791,5.423582 -2.624313,6.123399"
       id="path3037"
       inkscape:connector-curvature="0" />
    <path
       style="fill:none;stroke:#000000;stroke-width:1px;stroke-linecap:butt;stroke-linejoin:miter;stroke-opacity:1"
       d="m 29.917178,46.71911 c 0,-3.061699 3.93647,-4.373856 3.93647,-4.373856"
       id="path3039"
       inkscape:connector-curvature="0" />
    <path
       style="fill:none;stroke:#000000;stroke-width:1px;stroke-linecap:butt;stroke-linejoin:miter;stroke-opacity:1"
       d="m 51.174119,46.71911 c 8.22285,5.860968 12.946615,2.274405 12.946615,2.274405 0,0 -1.574588,6.560785 -8.485281,4.023948 -6.910693,-2.536837 -5.598536,-5.511059 -4.461334,-6.298353 z"
       id="path3041"
       inkscape:connector-curvature="0" />
    <path
       style="fill:none;stroke:#000000;stroke-width:1px;stroke-linecap:butt;stroke-linejoin:miter;stroke-opacity:1"
       d="m 53.273571,48.381176 c 0.524862,-5.860968 -4.111425,-3.411608 -4.373857,-0.524863 -0.262431,2.886745 0.776682,4.096416 2.176316,2.829286"
       id="path3043"
       inkscape:connector-curvature="0"
       sodipodi:nodetypes="csc" />
    <path
       style="fill:none;stroke:#000000;stroke-width:1px;stroke-linecap:butt;stroke-linejoin:miter;stroke-opacity:1"
       d="m 45.466704,37.30817 c 3.75488,3.591625 2.775346,4.244648 5.224181,7.591389"
       id="path3045"
       inkscape:connector-curvature="0"
       sodipodi:nodetypes="cc" />
    <path
       style="fill:none;stroke:#000000;stroke-width:1px;stroke-linecap:butt;stroke-linejoin:miter;stroke-opacity:1"
       d="m 44.160658,39.920261 c 0.08163,5.060926 -1.387673,6.285343 -0.571395,9.79534 0.816279,3.509997 -0.816278,10.693247 -6.77511,11.836036 -5.958832,1.14279 -11.346269,-3.509997 -11.101385,-6.122087"
       id="path3047"
       inkscape:connector-curvature="0"
       sodipodi:nodetypes="cssc" />
    <path
       style="fill:none;stroke:#000000;stroke-width:1px;stroke-linecap:butt;stroke-linejoin:miter;stroke-opacity:1"
       d="m 23.508816,46.123977 c -1.795812,-1.061162 -5.795576,-1.14279 -8.570922,-3.02023 -2.775347,-1.87744 -5.5506931,-9.713713 -5.5506931,-9.713713 0,0 7.0199941,7.673017 11.1013851,6.775111 4.081392,-0.897906 5.30581,-0.408139 5.30581,-0.408139"
       id="path3049"
       inkscape:connector-curvature="0" />
    <path
       style="fill:none;stroke:#000000;stroke-width:1px;stroke-linecap:butt;stroke-linejoin:miter;stroke-opacity:1"
       d="m 32.81439,42.695608 c -0.326512,3.428369 0.897906,6.040459 0.571394,8.244411"
       id="path3051"
       inkscape:connector-curvature="0"
       sodipodi:nodetypes="cc" />
    <path
       style="fill:none;stroke:#000000;stroke-width:1px;stroke-linecap:butt;stroke-linejoin:miter;stroke-opacity:1"
       d="m 44.160658,43.511886 c 3.02023,6.285343 4.571159,6.448599 4.571159,6.448599"
       id="path3053"
       inkscape:connector-curvature="0"
       sodipodi:nodetypes="cc" />
    <path
       style="fill:none;stroke:#000000;stroke-width:1px;stroke-linecap:butt;stroke-linejoin:miter;stroke-opacity:1"
       d="m 31.916483,39.103983 c 4.816042,6.448599 11.509525,6.448599 11.509525,6.448599"
       id="path3057"
       inkscape:connector-curvature="0" />
    <path
       style="fill:none;stroke:#000000;stroke-width:1px;stroke-linecap:butt;stroke-linejoin:miter;stroke-opacity:1"
       d="m 33.712296,37.797937 c 4.652786,5.142554 10.203479,5.142554 10.203479,5.142554"
       id="path3059"
       inkscape:connector-curvature="0" />
    <path
       style="fill:none;stroke:#000000;stroke-width:1px;stroke-linecap:butt;stroke-linejoin:miter;stroke-opacity:1"
       d="m 33.059273,50.776763 c 3.999764,4.571159 10.774874,1.469301 10.774874,1.469301"
       id="path3061"
       inkscape:connector-curvature="0" />
    <path
       style="fill:none;stroke:#000000;stroke-width:1px;stroke-linecap:butt;stroke-linejoin:miter;stroke-opacity:1"
       d="m 33.467412,49.797229 c 5.305809,3.101858 10.040224,0.979534 10.040224,0.979534"
       id="path3063"
       inkscape:connector-curvature="0" />
  </g>
</svg>
