<?xml version="1.0" encoding="UTF-8" standalone="no"?>
<!-- Created with Inkscape (http://www.inkscape.org/) -->

<svg
   xmlns:dc="http://purl.org/dc/elements/1.1/"
   xmlns:cc="http://creativecommons.org/ns#"
   xmlns:rdf="http://www.w3.org/1999/02/22-rdf-syntax-ns#"
   xmlns:svg="http://www.w3.org/2000/svg"
   xmlns="http://www.w3.org/2000/svg"
   xmlns:sodipodi="http://sodipodi.sourceforge.net/DTD/sodipodi-0.dtd"
   xmlns:inkscape="http://www.inkscape.org/namespaces/inkscape"
   id="svg3002"
   version="1.1"
   inkscape:version="0.48.0 r9654"
   width="72"
   height="72"
   sodipodi:docname="Leader.png">
  <metadata
     id="metadata3008">
    <rdf:RDF>
      <cc:Work
         rdf:about="">
        <dc:format>image/svg+xml</dc:format>
        <dc:type
           rdf:resource="http://purl.org/dc/dcmitype/StillImage" />
        <dc:title></dc:title>
      </cc:Work>
    </rdf:RDF>
  </metadata>
  <defs
     id="defs3006" />
  <sodipodi:namedview
     pagecolor="#ffffff"
     bordercolor="#666666"
     borderopacity="1"
     objecttolerance="10"
     gridtolerance="10"
     guidetolerance="10"
     inkscape:pageopacity="0"
     inkscape:pageshadow="2"
     inkscape:window-width="1366"
     inkscape:window-height="706"
     id="namedview3004"
     showgrid="false"
     inkscape:zoom="8.0833333"
     inkscape:cx="29.114807"
     inkscape:cy="35.995588"
     inkscape:window-x="-8"
     inkscape:window-y="-8"
     inkscape:window-maximized="1"
     inkscape:current-layer="layer2" />
  <g
     inkscape:groupmode="layer"
     id="layer2"
     inkscape:label="Taso">
    <path
       style="fill:none;stroke:#000000;stroke-width:1px;stroke-linecap:butt;stroke-linejoin:miter;stroke-opacity:1"
       d="m 40.375423,27.148851 c 2.338879,0.216613 2.877494,6.108676 4.964784,9.098571 0.426365,0.610738 -2.350516,2.226804 -2.350516,2.226804 0,0 -5.072165,-2.597937 -7.546392,-3.587628 -2.474227,-0.98969 -5.319588,-6.556702 -1.670103,-8.350511 0.494845,-1.175258 -0.556701,-3.71134 -0.556701,-3.71134 0,0 1.917526,0.432985 2.597938,-0.06186 0.680412,-0.494846 0.865979,-3.835052 0.865979,-3.835052 0,0 3.718845,2.081868 3.533278,9.257125 -1.898708,-2.197929 -6.272564,-1.804282 -6.272564,-1.804282"
       id="path3066"
       inkscape:connector-curvature="0"
       sodipodi:nodetypes="ccsccscsc" />
    <path
       style="fill:none;stroke:#000000;stroke-width:1px;stroke-linecap:butt;stroke-linejoin:miter;stroke-opacity:1"
       d="m 33.463918,35.010309 c -4.515464,2.597938 -8.041238,-0.309278 -8.041238,-0.309278 0,0 1.979382,4.701031 5.072165,5.134021 3.092784,0.432989 5.134021,-1.422681 2.969073,-4.824743 z"
       id="path3068"
       inkscape:connector-curvature="0" />
    <path
       style="fill:none;stroke:#000000;stroke-width:1px;stroke-linecap:butt;stroke-linejoin:miter;stroke-opacity:1"
       d="m 25.298969,35.072165 c -0.43299,3.958763 1.298969,5.505155 1.298969,5.505155"
       id="path3070"
       inkscape:connector-curvature="0" />
    <path
       style="fill:none;stroke:#000000;stroke-width:1px;stroke-linecap:butt;stroke-linejoin:miter;stroke-opacity:1"
       d="m 25.298969,45.649485 c 7.670103,-0.06186 7.670103,9.958762 0.927835,9.835051 -6.742268,-0.123711 -5.13402,-9.835051 -0.927835,-9.835051 z"
       id="path3072"
       inkscape:connector-curvature="0" />
    <path
       style="fill:none;stroke:#000000;stroke-width:1px;stroke-linecap:butt;stroke-linejoin:miter;stroke-opacity:1"
       d="m 24.061856,45.525773 c -0.309279,-3.835051 3.340206,-5.876288 4.639175,-6"
       id="path3074"
       inkscape:connector-curvature="0" />
    <path
       style="fill:none;stroke:#000000;stroke-width:1px;stroke-linecap:butt;stroke-linejoin:miter;stroke-opacity:1"
       d="m 50.969073,46.886598 c 7.237113,4.453609 12.865979,2.536083 12.865979,2.536083 0,0 -1.85567,6.927835 -8.226804,3.773196 -6.371134,-3.15464 -5.628866,-4.639176 -4.639175,-6.309279 z"
       id="path3076"
       inkscape:connector-curvature="0" />
    <path
       style="fill:none;stroke:#000000;stroke-width:1px;stroke-linecap:butt;stroke-linejoin:miter;stroke-opacity:1"
       d="m 53.443299,48.309278 c 0.247423,-5.072165 -5.195876,-3.896907 -4.824742,-0.185567 0.371134,3.711341 2.907216,3.525774 3.649485,3.092784"
       id="path3078"
       inkscape:connector-curvature="0"
       sodipodi:nodetypes="csc" />
    <path
       style="fill:none;stroke:#000000;stroke-width:1px;stroke-linecap:butt;stroke-linejoin:miter;stroke-opacity:1"
       d="m 44.164949,39.958763 c -0.06186,3.649484 -0.680413,4.329897 -0.494846,8.659794 0.185567,4.329897 -0.185567,13.051546 -8.597938,12.680412 -8.412371,-0.371134 -8.907217,-5.257732 -8.907217,-5.257732"
       id="path3080"
       inkscape:connector-curvature="0" />
    <path
       style="fill:none;stroke:#000000;stroke-width:1px;stroke-linecap:butt;stroke-linejoin:miter;stroke-opacity:1"
       d="m 29.752577,47.010309 c -0.06185,-3.340206 4.391753,-4.453608 4.391753,-4.453608"
       id="path3082"
       inkscape:connector-curvature="0" />
    <path
       style="fill:none;stroke:#000000;stroke-width:1px;stroke-linecap:butt;stroke-linejoin:miter;stroke-opacity:1"
       d="m 32.969072,43.237113 c 0.371134,3.154639 1.979382,6.804124 0,8.536083 1.546392,4.14433 9.340206,5.443299 9.340206,5.443299"
       id="path3084"
       inkscape:connector-curvature="0"
       sodipodi:nodetypes="cc" />
    <path
       style="fill:none;stroke:#000000;stroke-width:1px;stroke-linecap:butt;stroke-linejoin:miter;stroke-opacity:1"
       d="m 25.360825,38.969072 c -3.463918,-1.237113 -5.072165,1.670103 -8.536083,0.247423 -3.463917,-1.422681 -7.2989688,-6.556701 -7.2989688,-6.556701 0,0 0.371134,8.350515 5.1958768,9.773196 4.824742,1.42268 7.113402,0.804123 8.783505,3.773196"
       id="path3086"
       inkscape:connector-curvature="0" />
    <path
       style="fill:none;stroke:#000000;stroke-width:1px;stroke-linecap:butt;stroke-linejoin:miter;stroke-opacity:1"
       d="m 43.917526,43.175258 c 1.793814,5.505154 4.639175,5.938144 4.639175,5.938144"
       id="path3088"
       inkscape:connector-curvature="0" />
    <path
       style="fill:none;stroke:#000000;stroke-width:1px;stroke-linecap:butt;stroke-linejoin:miter;stroke-opacity:1"
       d="m 45.278351,37.113402 c 2.412371,1.793814 2.783505,5.56701 5.257732,7.917526"
       id="path3090"
       inkscape:connector-curvature="0" />
    <path
       style="fill:none;stroke:#000000;stroke-width:1px;stroke-linecap:butt;stroke-linejoin:miter;stroke-opacity:1"
       d="m 41.752577,38.041237 c -2.164948,7.237113 -7.917525,8.412371 -7.917525,8.412371"
       id="path3096"
       inkscape:connector-curvature="0"
       sodipodi:nodetypes="cc" />
    <path
       style="fill:none;stroke:#000000;stroke-width:1px;stroke-linecap:butt;stroke-linejoin:miter;stroke-opacity:1"
       d="M 34.206186,49.175258 C 40.824742,47.999996 44.28866,40.206186 44.041237,38.412371"
       id="path3098"
       inkscape:connector-curvature="0"
       sodipodi:nodetypes="cc" />
    <path
       style="fill:none;stroke:#000000;stroke-width:1px;stroke-linecap:butt;stroke-linejoin:miter;stroke-opacity:1"
       d="m 33.773196,50.907216 c 5.134021,4.329897 8.164948,4.206186 9.27835,4.082475"
       id="path3100"
       inkscape:connector-curvature="0" />
  </g>
</svg>
