<?xml version="1.0" encoding="UTF-8" standalone="no"?>
<!-- Created with Inkscape (http://www.inkscape.org/) -->

<svg
   xmlns:dc="http://purl.org/dc/elements/1.1/"
   xmlns:cc="http://creativecommons.org/ns#"
   xmlns:rdf="http://www.w3.org/1999/02/22-rdf-syntax-ns#"
   xmlns:svg="http://www.w3.org/2000/svg"
   xmlns="http://www.w3.org/2000/svg"
   xmlns:sodipodi="http://sodipodi.sourceforge.net/DTD/sodipodi-0.dtd"
   xmlns:inkscape="http://www.inkscape.org/namespaces/inkscape"
   id="svg2992"
   version="1.1"
   inkscape:version="0.48.0 r9654"
   width="72"
   height="72"
   sodipodi:docname="Warrior.svg">
  <metadata
     id="metadata2998">
    <rdf:RDF>
      <cc:Work
         rdf:about="">
        <dc:format>image/svg+xml</dc:format>
        <dc:type
           rdf:resource="http://purl.org/dc/dcmitype/StillImage" />
        <dc:title />
      </cc:Work>
    </rdf:RDF>
  </metadata>
  <defs
     id="defs2996" />
  <sodipodi:namedview
     pagecolor="#ffffff"
     bordercolor="#666666"
     borderopacity="1"
     objecttolerance="10"
     gridtolerance="10"
     guidetolerance="10"
     inkscape:pageopacity="0"
     inkscape:pageshadow="2"
     inkscape:window-width="1366"
     inkscape:window-height="706"
     id="namedview2994"
     showgrid="false"
     inkscape:zoom="11.43156"
     inkscape:cx="22.247769"
     inkscape:cy="35.907152"
     inkscape:window-x="-8"
     inkscape:window-y="-8"
     inkscape:window-maximized="1"
     inkscape:current-layer="svg2992" />
  <g
     inkscape:groupmode="layer"
     id="layer3"
     inkscape:label="Taso">
    <path
       style="fill:none;stroke:#000000;stroke-width:1px;stroke-linecap:butt;stroke-linejoin:miter;stroke-opacity:1"
       d="m 35.078328,24.674874 c -1.574588,5.948445 8.922667,8.485281 8.922667,8.485281 0,0 1.924497,-2.361882 1.749542,-3.411608 C 45.575583,28.698822 39.88957,16.452024 35.078328,24.674874 z"
       id="path3103"
       inkscape:connector-curvature="0"
       sodipodi:nodetypes="ccsc" />
    <path
       style="fill:none;stroke:#000000;stroke-width:1px;stroke-linecap:butt;stroke-linejoin:miter;stroke-opacity:1"
       d="m 36.652916,29.923502 c -2.974222,0.874771 -3.586562,3.149176 -5.423581,3.149176 -1.83702,0 -3.0617,0 -3.0617,0"
       id="path3105"
       inkscape:connector-curvature="0" />
    <path
       style="fill:none;stroke:#000000;stroke-width:1px;stroke-linecap:butt;stroke-linejoin:miter;stroke-opacity:1"
       d="m 25.630798,31.060704 c -2.274405,-0.524863 -2.974222,2.099451 -2.011974,3.324131 0.962249,1.22468 4.373857,0.524863 4.373857,-1.399634 0,-1.924497 -2.361883,-1.924497 -2.361883,-1.924497 z"
       id="path3107"
       inkscape:connector-curvature="0" />
    <path
       style="fill:none;stroke:#000000;stroke-width:1px;stroke-linecap:butt;stroke-linejoin:miter;stroke-opacity:1"
       d="m 25.805753,35.609515 c 0,0 1.399634,2.974222 2.274405,2.449359 0.874771,-0.524862 0.61234,-2.624313 -0.262431,-3.761516"
       id="path3109"
       inkscape:connector-curvature="0" />
    <path
       style="fill:none;stroke:#000000;stroke-width:1px;stroke-linecap:butt;stroke-linejoin:miter;stroke-opacity:1"
       d="M 23.618824,31.673044 C 17.757857,24.49992 19.507399,16.014638 19.507399,16.014638 l 5.598537,14.696158"
       id="path3111"
       inkscape:connector-curvature="0" />
    <path
       style="fill:none;stroke:#000000;stroke-width:1px;stroke-linecap:butt;stroke-linejoin:miter;stroke-opacity:1"
       d="m 46.187923,29.836024 c 3.761516,0 6.035922,-4.986196 6.035922,-4.986196"
       id="path3113"
       inkscape:connector-curvature="0"
       sodipodi:nodetypes="cc" />
    <path
       style="fill:none;stroke:#000000;stroke-width:1px;stroke-linecap:butt;stroke-linejoin:miter;stroke-opacity:1"
       d="m 52.136368,21.613174 c -1.137203,1.924497 -0.437386,3.324131 1.574588,3.324131 2.011974,0 1.924497,-1.574588 2.011974,-2.449359 0.08748,-0.874772 -2.361882,-2.099451 -3.586562,-0.874772 z"
       id="path3115"
       inkscape:connector-curvature="0" />
    <path
       style="fill:none;stroke:#000000;stroke-width:1px;stroke-linecap:butt;stroke-linejoin:miter;stroke-opacity:1"
       d="m 53.798433,25.549645 c 0,0 4.198903,3.936471 5.161151,2.44936 0.962248,-1.487111 -3.324131,-3.936471 -3.324131,-3.936471"
       id="path3117"
       inkscape:connector-curvature="0" />
    <path
       style="fill:none;stroke:#000000;stroke-width:1px;stroke-linecap:butt;stroke-linejoin:miter;stroke-opacity:1"
       d="M 51.698982,22.05056 39.452185,13.21537 c 0,0 6.648261,0 13.558954,7.523033"
       id="path3119"
       inkscape:connector-curvature="0" />
    <path
       style="fill:none;stroke:#000000;stroke-width:1px;stroke-linecap:butt;stroke-linejoin:miter;stroke-opacity:1"
       d="m 28.779975,36.396809 c 7.173124,1.749543 7.173124,-0.61234 7.173124,-0.61234"
       id="path3121"
       inkscape:connector-curvature="0" />
    <path
       style="fill:none;stroke:#000000;stroke-width:1px;stroke-linecap:butt;stroke-linejoin:miter;stroke-opacity:1"
       d="m 54.673205,26.949279 c -1.487111,4.898719 -10.234824,8.310327 -10.234824,9.884916"
       id="path3123"
       inkscape:connector-curvature="0" />
    <path
       style="fill:none;stroke:#000000;stroke-width:1px;stroke-linecap:butt;stroke-linejoin:miter;stroke-opacity:1"
       d="m 44.263427,35.084652 c 0.699817,3.411608 -0.08748,5.773491 -0.262432,8.922667 -0.174954,3.149177 0.787294,9.097621 -7.523033,9.972393 -8.310327,0.874771 -12.334275,-5.598536 -9.622484,-8.22285 2.711791,-2.624314 -12.509229,0.61234 -12.509229,0.61234 0,0 9.972392,-5.511059 14.083817,-4.723765 4.111425,0.787294 2.799268,4.723765 2.799268,4.723765"
       id="path3125"
       inkscape:connector-curvature="0"
       sodipodi:nodetypes="cssscsc" />
    <path
       style="fill:none;stroke:#000000;stroke-width:1px;stroke-linecap:butt;stroke-linejoin:miter;stroke-opacity:1"
       d="m 29.567269,46.71911 c 5.230708,-1.018109 7.237002,0.585708 7.085647,-3.674039 -0.146125,-4.112551 -1.749542,-4.461334 -1.749542,-5.773491"
       id="path3127"
       inkscape:connector-curvature="0"
       sodipodi:nodetypes="csc" />
    <path
       style="fill:none;stroke:#000000;stroke-width:1px;stroke-linecap:butt;stroke-linejoin:miter;stroke-opacity:1"
       d="m 36.303008,45.669385 c 5.77349,2.974222 7.523033,1.312156 7.523033,1.312156"
       id="path3129"
       inkscape:connector-curvature="0" />
    <path
       style="fill:none;stroke:#000000;stroke-width:1px;stroke-linecap:butt;stroke-linejoin:miter;stroke-opacity:1"
       d="m 36.652916,43.657411 c 4.548811,2.011974 6.560785,1.662065 7.173125,1.487111"
       id="path3131"
       inkscape:connector-curvature="0" />
  </g>
</svg>
